<svg width="512" height="470" viewBox="0 0 512 470" fill="none" xmlns="http://www.w3.org/2000/svg">
<path d="M405.333 0.333313H106.667C78.3873 0.367187 51.2759 11.6161 31.2794 31.6127C11.2828 51.6092 0.0338743 78.7206 0 107L0 363C0.0338743 391.279 11.2828 418.391 31.2794 438.387C51.2759 458.384 78.3873 469.633 106.667 469.667H405.333C433.613 469.633 460.724 458.384 480.721 438.387C500.717 418.391 511.966 391.279 512 363V107C511.966 78.7206 500.717 51.6092 480.721 31.6127C460.724 11.6161 433.613 0.367187 405.333 0.333313ZM106.667 43H405.333C418.107 43.0251 430.582 46.8723 441.151 54.0465C451.72 61.2206 459.901 71.3935 464.64 83.256L301.269 246.648C289.246 258.623 272.969 265.346 256 265.346C239.031 265.346 222.754 258.623 210.731 246.648L47.36 83.256C52.0992 71.3935 60.2798 61.2206 70.849 54.0465C81.4183 46.8723 93.8926 43.0251 106.667 43ZM405.333 427H106.667C89.6928 427 73.4142 420.257 61.4118 408.255C49.4095 396.253 42.6667 379.974 42.6667 363V139L180.565 276.813C200.589 296.787 227.717 308.003 256 308.003C284.283 308.003 311.411 296.787 331.435 276.813L469.333 139V363C469.333 379.974 462.591 396.253 450.588 408.255C438.586 420.257 422.307 427 405.333 427Z" fill="#E0A133"/>
</svg>
